<svg xmlns="http://www.w3.org/2000/svg" width="47" height="47"><path d="M33.847 8.311l-20.5 1.7c-.014 0-.026.008-.04.008h-.136A1.151 1.151 0 0012 11.151v25.721A1.15 1.15 0 0013.172 38h.136c.014 0 .026.008.04.008l.091-.008H32.3a1.15 1.15 0 001.169-1.131v-.528l.378-.032a1.141 1.141 0 001.147-1.133V9.444a1.141 1.141 0 00-1.147-1.133zm-1.9 28.561a.135.135 0 01-.146.12H13.172a.135.135 0 01-.146-.12V11.151a.137.137 0 01.146-.122H31.8a.137.137 0 01.146.122v25.721zm2.025-1.693a.124.124 0 01-.124.122h-.093l-.788.025V11.151a1.151 1.151 0 00-1.169-1.132h-5.9l7.971-.695a.123.123 0 01.1.12v25.735zm-6.1-4.178H17.136a1.166 1.166 0 00-1.131 1.2v.6a1.165 1.165 0 001.131 1.2h10.739a1.165 1.165 0 001.131-1.2v-.6A1.166 1.166 0 0027.875 31zm.131 1.8a.183.183 0 01-.131.2H17.136a.182.182 0 01-.131-.2v-.6a.181.181 0 01.131-.2h10.739a.181.181 0 01.131.2v.6zM22.5 27a6.5 6.5 0 116.5-6.5 6.5 6.5 0 01-6.5 6.5zm0-12a5.5 5.5 0 105.5 5.5 5.5 5.5 0 00-5.5-5.5zm1 32A23.5 23.5 0 1147 23.5 23.527 23.527 0 0123.5 47zm0-46A22.5 22.5 0 1046 23.5 22.526 22.526 0 0023.5 1z" fill="#9e9e9e" fill-rule="evenodd"/></svg>